# xmcd CD database file
#
# Track frame offsets:
#	150
#	24077
#	40003
#	64447
#	77946
#	93157
#	115040
#	133812
#	152591
#	172533
#	183597
#	194919
#
# Disc length: 2884 seconds
#
# Revision: 0
# Processed by: cddbd v1.4PL0 Copyright (c) Steve Scherf et al.
# Submitted via: CDex 1.50beta10
#
DISCID=960b420c
DTITLE=Furry Lewis - Take Your Time
DYEAR=2000
DGENRE=Blues
TTITLE0=Judge Boushe
TTITLE1=Take Your Time
TTITLE2=East St. Louis Blues
TTITLE3=Let Me Call You Sweetheart
TTITLE4=See That My Grave Is Kept Clean
TTITLE5=St. Louis Blues
TTITLE6=If You Follow Me Babe
TTITLE7=Glory Hallelujah
TTITLE8=Natural Born Eastman
TTITLE9=Bugle Waltz
TTITLE10=How Long?
TTITLE11=John Henry
EXTD=YEAR: 2000
EXTT0=
EXTT1=
EXTT2=
EXTT3=
EXTT4=
EXTT5=
EXTT6=
EXTT7=
EXTT8=
EXTT9=
EXTT10=
EXTT11=
PLAYORDER=
